<?xml version="1.0" encoding="utf-8"?>
<!-- Generator: Adobe Illustrator 19.0.0, SVG Export Plug-In . SVG Version: 6.00 Build 0)  -->
<svg version="1.1" id="Слой_1" xmlns="http://www.w3.org/2000/svg" xmlns:xlink="http://www.w3.org/1999/xlink" x="0px" y="0px"
	 viewBox="-466.4 268.6 24.4 24.4" style="enable-background:new -466.4 268.6 24.4 24.4;" xml:space="preserve">
<style type="text/css">
	.st0{fill:#0078FE;}
</style>
<title>Group 8</title>
<desc>Created with Sketch.</desc>
<g id="Symbols">
	<g id="btn_x2F_arrow-" transform="translate(-5.000000, -5.000000)">
		<g id="Group-8" transform="translate(6.000000, 6.000000)">
			<path id="Combined-Shape-Copy-2" class="st0" d="M-450.8,272.6l5-5l2.8,2.8l-5,5l2.3,2.3c0.4,0.4,0.4,1,0,1.4
				c-0.2,0.2-0.4,0.3-0.7,0.3l-7.6,0c-0.6,0-1-0.4-1-1c0,0,0,0,0,0v-7.6c0-0.6,0.4-1,1-1c0.3,0,0.5,0.1,0.7,0.3L-450.8,272.6z"/>
			<path id="Combined-Shape-Copy-3" class="st0" d="M-459.6,286.8l-5,5l-2.8-2.8l5-5l-2.3-2.3c-0.4-0.4-0.4-1,0-1.4
				c0.2-0.2,0.4-0.3,0.7-0.3l7.6,0c0.6,0,1,0.4,1,1c0,0,0,0,0,0v7.6c0,0.6-0.4,1-1,1c-0.3,0-0.5-0.1-0.7-0.3L-459.6,286.8z"/>
		</g>
	</g>
</g>
</svg>
